<svg width="43" height="52" viewBox="0 0 43 52" fill="none" xmlns="http://www.w3.org/2000/svg">
<g clip-path="url(#clip0_203_2257)">
<path d="M30.112 13.587C30.1136 13.5756 30.1136 13.5641 30.112 13.5527C29.1507 12.0141 28.5356 10.295 28.3071 8.50859H28.5944C28.8619 8.50859 29.1183 8.4053 29.3074 8.22144C29.4965 8.03758 29.6028 7.78821 29.6028 7.52819V1.49388C29.6028 1.23386 29.4965 0.984498 29.3074 0.800639C29.1183 0.61678 28.8619 0.513489 28.5944 0.513489H13.9737C13.7062 0.513489 13.4498 0.61678 13.2607 0.800639C13.0716 0.984498 12.9653 1.23386 12.9653 1.49388V7.49878C12.9653 7.7588 13.0716 8.00817 13.2607 8.19202C13.4498 8.37588 13.7062 8.47918 13.9737 8.47918H14.735C14.5116 10.2943 13.8928 12.0423 12.92 13.6066L12.8695 13.6507C10.0193 18.092 8.50348 23.2198 8.4934 28.4547V47.5135C8.48941 48.0323 8.59058 48.5469 8.79111 49.0277C8.99165 49.5086 9.28764 49.9463 9.66217 50.3159C10.0367 50.6855 10.4824 50.9798 10.9739 51.1819C11.4654 51.384 11.9931 51.49 12.5267 51.4939H15.8945V49.5331H12.5267C12.2579 49.5293 11.9925 49.474 11.7457 49.3704C11.4988 49.2668 11.2754 49.117 11.0881 48.9294C10.9009 48.7419 10.7534 48.5203 10.6542 48.2774C10.555 48.0344 10.5061 47.7749 10.5101 47.5135V28.4547C10.5101 28.2537 10.5101 28.0576 10.5101 27.8566C11.4148 28.3802 12.2468 29.0144 12.9855 29.7439C14.4224 31.0282 15.9147 32.3566 17.6289 32.3566C19.343 32.3566 20.8303 31.0282 22.2722 29.7439C23.4268 28.7096 24.6216 27.6409 25.5543 27.6409C26.487 27.6409 27.6769 28.7096 28.8314 29.7439C29.9859 30.7782 31.1657 31.8223 32.4664 32.1949V47.5135C32.4704 47.7749 32.4214 48.0344 32.3223 48.2774C32.2231 48.5203 32.0756 48.7419 31.8884 48.9294C31.7011 49.117 31.4777 49.2668 31.2308 49.3704C30.984 49.474 30.7186 49.5293 30.4498 49.5331H21.9445V51.4939H30.4599C30.9935 51.49 31.5211 51.384 32.0126 51.1819C32.5041 50.9798 32.9499 50.6855 33.3244 50.3159C33.6989 49.9463 33.9949 49.5086 34.1955 49.0277C34.396 48.5469 34.4972 48.0323 34.4932 47.5135V28.3566C34.4742 23.133 32.9569 18.0181 30.112 13.587ZM14.9417 2.47427H27.5458V6.51839H14.9417V2.47427ZM32.4765 30.0625C31.6569 29.55 30.8963 28.9535 30.2078 28.2831C28.7659 26.9939 27.2786 25.6655 25.5644 25.6655C23.8503 25.6655 22.3579 26.9841 20.9362 28.2831C19.7816 29.3174 18.5868 30.3811 17.6591 30.3811C16.7315 30.3811 15.5164 29.3174 14.382 28.2831C13.2477 27.2488 12.0074 26.1605 10.6764 25.7978C11.1104 21.8711 12.4438 18.0889 14.5787 14.7292L14.6493 14.6164C15.8091 12.7481 16.532 10.6545 16.7667 8.48408H26.235C26.4735 10.6239 27.1911 12.6869 28.3373 14.5282L28.4079 14.6409C31.0488 18.7599 32.4576 23.5127 32.4765 28.3664V30.0625Z" fill="#E7E7E7"/>
<path d="M20.2762 50.4569C20.2762 49.9154 19.8285 49.4765 19.2762 49.4765C18.724 49.4765 18.2762 49.9154 18.2762 50.4569C18.2762 50.9983 18.724 51.4373 19.2762 51.4373C19.8285 51.4373 20.2762 50.9983 20.2762 50.4569Z" fill="#E7E7E7"/>
</g>
<defs>
<clipPath id="clip0_203_2257">
<rect width="41.44" height="50.3007" fill="white" transform="translate(0.773315 0.853333)"/>
</clipPath>
</defs>
</svg>
