<svg width="48" height="46" viewBox="0 0 48 46" fill="none" xmlns="http://www.w3.org/2000/svg">
<path d="M48 21.3171H42.48C41.76 18.8488 40.56 16.3805 38.88 14.5854L47.04 2.46829L42.96 0L35.28 11.4439C34.32 10.7707 33.6 10.322 32.4 9.87317L34.56 1.79512L30 0.673171L28.08 8.30244C26.64 8.07805 25.44 7.85366 24 7.85366C15.12 7.85366 7.68 13.6878 5.52 21.3171H0C0 30.5171 6 38.3707 14.4 41.961V46H33.6V41.961C42 38.3707 48 30.5171 48 21.3171ZM24 12.3415C30.24 12.3415 35.52 16.1561 37.44 21.3171H10.56C12.48 16.1561 17.76 12.3415 24 12.3415Z" fill="#992637"/>
</svg>
