<svg width="60" height="60" viewBox="0 0 60 60" fill="none" xmlns="http://www.w3.org/2000/svg">
<g clip-path="url(#clip0_123_612)">
<path d="M49.2837 5H11.6765C11.4918 5 11.3147 5.08077 11.1841 5.22455C11.0535 5.36832 10.9801 5.56333 10.9801 5.76666V10.3666C10.9801 10.5699 11.0535 10.7649 11.1841 10.9087C11.3147 11.0525 11.4918 11.1333 11.6765 11.1333H17.6658L19.1109 12.6666L17.4638 14.4146C17.3964 14.4861 17.3428 14.5718 17.3062 14.6667C17.2696 14.7615 17.2507 14.8635 17.2507 14.9665C17.2507 15.0696 17.2696 15.1716 17.3062 15.2664C17.3428 15.3613 17.3964 15.447 17.4638 15.5185L19.1081 17.2665L17.4611 19.0145C17.3936 19.086 17.34 19.1718 17.3034 19.2666C17.2668 19.3614 17.2479 19.4634 17.2479 19.5665C17.2479 19.6695 17.2668 19.7715 17.3034 19.8664C17.34 19.9612 17.3936 20.047 17.4611 20.1185L19.1081 21.8665L17.4611 23.6144C17.3936 23.686 17.34 23.7717 17.3034 23.8665C17.2668 23.9614 17.2479 24.0634 17.2479 24.1664C17.2479 24.2695 17.2668 24.3715 17.3034 24.4663C17.34 24.5612 17.3936 24.6469 17.4611 24.7184L19.1081 26.4664L18.9054 26.6811C18.7725 26.8223 18.6959 27.0159 18.6925 27.2192C18.6892 27.4226 18.7594 27.6191 18.8877 27.7655C19.016 27.9119 19.1918 27.9962 19.3766 27.9999C19.5613 28.0035 19.7398 27.9263 19.8728 27.7851L20.595 27.0184C20.6624 26.9469 20.716 26.8611 20.7526 26.7663C20.7892 26.6715 20.8081 26.5695 20.8081 26.4664C20.8081 26.3634 20.7892 26.2614 20.7526 26.1665C20.716 26.0717 20.6624 25.9859 20.595 25.9144L18.9472 24.1664L20.595 22.4185C20.6624 22.3469 20.716 22.2612 20.7526 22.1664C20.7892 22.0715 20.8081 21.9695 20.8081 21.8665C20.8081 21.7634 20.7892 21.6614 20.7526 21.5666C20.716 21.4717 20.6624 21.386 20.595 21.3145L18.9472 19.5665L20.595 17.8185C20.6624 17.747 20.716 17.6613 20.7526 17.5664C20.7892 17.4716 20.8081 17.3696 20.8081 17.2665C20.8081 17.1635 20.7892 17.0615 20.7526 16.9666C20.716 16.8718 20.6624 16.786 20.595 16.7145L18.9472 14.9665L20.595 13.2186C20.6624 13.147 20.716 13.0613 20.7526 12.9665C20.7892 12.8716 20.8081 12.7696 20.8081 12.6666C20.8081 12.5635 20.7892 12.4615 20.7526 12.3667C20.716 12.2718 20.6624 12.1861 20.595 12.1146L19.6701 11.1333H20.5525L21.9962 12.6666L20.3498 14.4146C20.2824 14.4861 20.2288 14.5718 20.1922 14.6667C20.1556 14.7615 20.1367 14.8635 20.1367 14.9665C20.1367 15.0696 20.1556 15.1716 20.1922 15.2664C20.2288 15.3613 20.2824 15.447 20.3498 15.5185L21.9962 17.2665L20.3498 19.0145C20.2824 19.086 20.2288 19.1718 20.1922 19.2666C20.1556 19.3614 20.1367 19.4634 20.1367 19.5665C20.1367 19.6695 20.1556 19.7715 20.1922 19.8664C20.2288 19.9612 20.2824 20.047 20.3498 20.1185L21.9962 21.8665L20.3498 23.6144C20.2824 23.686 20.2288 23.7717 20.1922 23.8665C20.1556 23.9614 20.1367 24.0634 20.1367 24.1664C20.1367 24.2695 20.1556 24.3715 20.1922 24.4663C20.2288 24.5612 20.2824 24.6469 20.3498 24.7184L21.9962 26.4664L21.7942 26.6811C21.6612 26.8223 21.5847 27.0159 21.5813 27.2192C21.578 27.4226 21.6482 27.6191 21.7765 27.7655C21.9047 27.9119 22.0806 27.9962 22.2653 27.9999C22.4501 28.0035 22.6286 27.9263 22.7616 27.7851L23.4831 27.0184C23.5505 26.9469 23.6041 26.8611 23.6407 26.7663C23.6773 26.6715 23.6962 26.5695 23.6962 26.4664C23.6962 26.3634 23.6773 26.2614 23.6407 26.1665C23.6041 26.0717 23.5505 25.9859 23.4831 25.9144L21.8367 24.1664L23.4831 22.4185C23.5505 22.3469 23.6041 22.2612 23.6407 22.1664C23.6773 22.0715 23.6962 21.9695 23.6962 21.8665C23.6962 21.7634 23.6773 21.6614 23.6407 21.5666C23.6041 21.4717 23.5505 21.386 23.4831 21.3145L21.8367 19.5665L23.4831 17.8185C23.5505 17.747 23.6041 17.6613 23.6407 17.5664C23.6773 17.4716 23.6962 17.3696 23.6962 17.2665C23.6962 17.1635 23.6773 17.0615 23.6407 16.9666C23.6041 16.8718 23.5505 16.786 23.4831 16.7145L21.8367 14.9665L23.4831 13.2186C23.5505 13.147 23.6041 13.0613 23.6407 12.9665C23.6773 12.8716 23.6962 12.7696 23.6962 12.6666C23.6962 12.5635 23.6773 12.4615 23.6407 12.3667C23.6041 12.2718 23.5505 12.1861 23.4831 12.1146L22.5589 11.1333H23.4406L24.8857 12.6666L23.2372 14.4146C23.1698 14.4861 23.1162 14.5718 23.0796 14.6667C23.043 14.7615 23.0241 14.8635 23.0241 14.9665C23.0241 15.0696 23.043 15.1716 23.0796 15.2664C23.1162 15.3613 23.1698 15.447 23.2372 15.5185L24.8857 17.2665L23.2372 19.0145C23.1698 19.086 23.1162 19.1718 23.0796 19.2666C23.043 19.3614 23.0241 19.4634 23.0241 19.5665C23.0241 19.6695 23.043 19.7715 23.0796 19.8664C23.1162 19.9612 23.1698 20.047 23.2372 20.1185L24.8857 21.8665L23.2372 23.6144C23.1698 23.686 23.1162 23.7717 23.0796 23.8665C23.043 23.9614 23.0241 24.0634 23.0241 24.1664C23.0241 24.2695 23.043 24.3715 23.0796 24.4663C23.1162 24.5612 23.1698 24.6469 23.2372 24.7184L24.8857 26.4664L24.683 26.6811C24.6172 26.7509 24.5645 26.8344 24.5279 26.9267C24.4914 27.019 24.4717 27.1183 24.47 27.219C24.4683 27.3196 24.4847 27.4197 24.5181 27.5134C24.5516 27.6071 24.6014 27.6926 24.6649 27.7651C24.7284 27.8376 24.8042 27.8956 24.888 27.9359C24.9719 27.9761 25.0621 27.9978 25.1535 27.9996C25.245 28.0015 25.3359 27.9835 25.421 27.9466C25.5061 27.9098 25.5838 27.8549 25.6497 27.7851L26.3726 27.0184C26.44 26.9469 26.4936 26.8611 26.5302 26.7663C26.5668 26.6715 26.5857 26.5695 26.5857 26.4664C26.5857 26.3634 26.5668 26.2614 26.5302 26.1665C26.4936 26.0717 26.44 25.9859 26.3726 25.9144L24.7248 24.1664L26.3712 22.4185C26.4386 22.3469 26.4922 22.2612 26.5288 22.1664C26.5654 22.0715 26.5843 21.9695 26.5843 21.8665C26.5843 21.7634 26.5654 21.6614 26.5288 21.5666C26.4922 21.4717 26.4386 21.386 26.3712 21.3145L24.7248 19.5665L26.3712 17.8185C26.4386 17.747 26.4922 17.6613 26.5288 17.5664C26.5654 17.4716 26.5843 17.3696 26.5843 17.2665C26.5843 17.1635 26.5654 17.0615 26.5288 16.9666C26.4922 16.8718 26.4386 16.786 26.3712 16.7145L24.7248 14.9665L26.3712 13.2186C26.4386 13.147 26.4922 13.0613 26.5288 12.9665C26.5654 12.8716 26.5843 12.7696 26.5843 12.6666C26.5843 12.5635 26.5654 12.4615 26.5288 12.3667C26.4922 12.2718 26.4386 12.1861 26.3712 12.1146L25.4477 11.1333H26.3301L27.7745 12.6666L26.1274 14.4146C26.06 14.4861 26.0064 14.5718 25.9698 14.6667C25.9332 14.7615 25.9143 14.8635 25.9143 14.9665C25.9143 15.0696 25.9332 15.1716 25.9698 15.2664C26.0064 15.3613 26.06 15.447 26.1274 15.5185L27.7745 17.2665L26.1274 19.0145C26.06 19.086 26.0064 19.1718 25.9698 19.2666C25.9332 19.3614 25.9143 19.4634 25.9143 19.5665C25.9143 19.6695 25.9332 19.7715 25.9698 19.8664C26.0064 19.9612 26.06 20.047 26.1274 20.1185L27.7745 21.8665L26.1274 23.6144C26.06 23.686 26.0064 23.7717 25.9698 23.8665C25.9332 23.9614 25.9143 24.0634 25.9143 24.1664C25.9143 24.2695 25.9332 24.3715 25.9698 24.4663C26.0064 24.5612 26.06 24.6469 26.1274 24.7184L27.7745 26.4664L27.5718 26.6811C27.506 26.751 27.4534 26.8345 27.4169 26.9268C27.3804 27.0191 27.3608 27.1185 27.3591 27.2191C27.3575 27.3198 27.3739 27.4198 27.4074 27.5135C27.4409 27.6072 27.4909 27.6927 27.5544 27.7651C27.6196 27.8399 27.6981 27.8991 27.7849 27.9392C27.8153 27.9486 27.8463 27.9558 27.8775 27.9606C27.9331 27.9819 27.9909 27.995 28.0496 27.9997H28.0558C28.1107 27.9952 28.1649 27.9839 28.2174 27.966C28.2481 27.9616 28.2786 27.9552 28.3086 27.9468C28.3944 27.91 28.4727 27.8551 28.5391 27.7851L29.2613 27.0184C29.3287 26.9469 29.3824 26.8611 29.419 26.7663C29.4556 26.6715 29.4745 26.5695 29.4745 26.4664C29.4745 26.3634 29.4556 26.2614 29.419 26.1665C29.3824 26.0717 29.3287 25.9859 29.2613 25.9144L27.6143 24.1664L29.2613 22.4185C29.3287 22.3469 29.3824 22.2612 29.419 22.1664C29.4556 22.0715 29.4745 21.9695 29.4745 21.8665C29.4745 21.7634 29.4556 21.6614 29.419 21.5666C29.3824 21.4717 29.3287 21.386 29.2613 21.3145L27.6143 19.5665L29.2613 17.8185C29.3287 17.747 29.3824 17.6613 29.419 17.5664C29.4556 17.4716 29.4745 17.3696 29.4745 17.2665C29.4745 17.1635 29.4556 17.0615 29.419 16.9666C29.3824 16.8718 29.3287 16.786 29.2613 16.7145L27.6143 14.9665L29.2613 13.2186C29.3287 13.147 29.3824 13.0613 29.419 12.9665C29.4556 12.8716 29.4745 12.7696 29.4745 12.6666C29.4745 12.5635 29.4556 12.4615 29.419 12.3667C29.3824 12.2718 29.3287 12.1861 29.2613 12.1146L28.3365 11.1333H29.2189L30.6639 12.6666L29.0176 14.4146C28.9502 14.4861 28.8966 14.5718 28.86 14.6667C28.8233 14.7615 28.8045 14.8635 28.8045 14.9665C28.8045 15.0696 28.8233 15.1716 28.86 15.2664C28.8966 15.3613 28.9502 15.447 29.0176 15.5185L30.6639 17.2665L29.0176 19.0145C28.9502 19.086 28.8966 19.1718 28.86 19.2666C28.8233 19.3614 28.8045 19.4634 28.8045 19.5665C28.8045 19.6695 28.8233 19.7715 28.86 19.8664C28.8966 19.9612 28.9502 20.047 29.0176 20.1185L30.6639 21.8665L29.0176 23.6144C28.9502 23.686 28.8966 23.7717 28.86 23.8665C28.8233 23.9614 28.8045 24.0634 28.8045 24.1664C28.8045 24.2695 28.8233 24.3715 28.86 24.4663C28.8966 24.5612 28.9502 24.6469 29.0176 24.7184L30.6639 26.4664L30.4613 26.6811C30.3784 26.7691 30.3166 26.8785 30.2816 26.9993C30.2465 27.1201 30.2392 27.2486 30.2603 27.3732C30.2814 27.4979 30.3303 27.6149 30.4026 27.7136C30.4748 27.8124 30.5682 27.8899 30.6744 27.9392C30.7032 27.948 30.7325 27.955 30.7621 27.9599C30.8191 27.9808 30.8784 27.9937 30.9383 27.9982H30.9446C31.0002 27.9939 31.0552 27.9823 31.1083 27.9637C31.1386 27.9599 31.1686 27.9537 31.1981 27.9453C31.2835 27.9083 31.3616 27.8534 31.4279 27.7835L32.1501 27.0169C32.2175 26.9453 32.2711 26.8596 32.3078 26.7648C32.3444 26.6699 32.3632 26.5679 32.3632 26.4649C32.3632 26.3618 32.3444 26.2598 32.3078 26.165C32.2711 26.0701 32.2175 25.9844 32.1501 25.9129L30.5031 24.1664L32.1515 22.4185C32.2189 22.3469 32.2725 22.2612 32.3092 22.1664C32.3458 22.0715 32.3646 21.9695 32.3646 21.8665C32.3646 21.7634 32.3458 21.6614 32.3092 21.5666C32.2725 21.4717 32.2189 21.386 32.1515 21.3145L30.5031 19.5665L32.1515 17.8185C32.2189 17.747 32.2725 17.6613 32.3092 17.5664C32.3458 17.4716 32.3646 17.3696 32.3646 17.2665C32.3646 17.1635 32.3458 17.0615 32.3092 16.9666C32.2725 16.8718 32.2189 16.786 32.1515 16.7145L30.5031 14.9665L32.1515 13.2186C32.2189 13.147 32.2725 13.0613 32.3092 12.9665C32.3458 12.8716 32.3646 12.7696 32.3646 12.6666C32.3646 12.5635 32.3458 12.4615 32.3092 12.3667C32.2725 12.2718 32.2189 12.1861 32.1515 12.1146L31.2253 11.1333H32.1076L33.552 12.6666L31.9057 14.4146C31.8383 14.4861 31.7847 14.5718 31.748 14.6667C31.7114 14.7615 31.6926 14.8635 31.6926 14.9665C31.6926 15.0696 31.7114 15.1716 31.748 15.2664C31.7847 15.3613 31.8383 15.447 31.9057 15.5185L33.552 17.2665L31.9057 19.0145C31.8383 19.086 31.7847 19.1718 31.748 19.2666C31.7114 19.3614 31.6926 19.4634 31.6926 19.5665C31.6926 19.6695 31.7114 19.7715 31.748 19.8664C31.7847 19.9612 31.8383 20.047 31.9057 20.1185L33.552 21.8665L31.9057 23.6144C31.8383 23.686 31.7847 23.7717 31.748 23.8665C31.7114 23.9614 31.6926 24.0634 31.6926 24.1664C31.6926 24.2695 31.7114 24.3715 31.748 24.4663C31.7847 24.5612 31.8383 24.6469 31.9057 24.7184L33.552 26.4664L33.3494 26.6811C33.2835 26.751 33.2308 26.8345 33.1943 26.9268C33.1578 27.0192 33.1381 27.1185 33.1365 27.2192C33.1348 27.3199 33.1512 27.42 33.1847 27.5137C33.2182 27.6075 33.2681 27.693 33.3316 27.7655C33.4599 27.9119 33.6357 27.9962 33.8205 27.9999C33.912 28.0017 34.0029 27.9837 34.088 27.9468C34.1732 27.9099 34.2509 27.855 34.3167 27.7851L35.0389 27.0184C35.1063 26.9469 35.1599 26.8611 35.1965 26.7663C35.2332 26.6715 35.252 26.5695 35.252 26.4664C35.252 26.3634 35.2332 26.2614 35.1965 26.1665C35.1599 26.0717 35.1063 25.9859 35.0389 25.9144L33.3926 24.1664L35.0389 22.4185C35.1063 22.3469 35.1599 22.2612 35.1965 22.1664C35.2332 22.0715 35.252 21.9695 35.252 21.8665C35.252 21.7634 35.2332 21.6614 35.1965 21.5666C35.1599 21.4717 35.1063 21.386 35.0389 21.3145L33.3926 19.5665L35.0389 17.8185C35.1063 17.747 35.1599 17.6613 35.1965 17.5664C35.2332 17.4716 35.252 17.3696 35.252 17.2665C35.252 17.1635 35.2332 17.0615 35.1965 16.9666C35.1599 16.8718 35.1063 16.786 35.0389 16.7145L33.3926 14.9665L35.0389 13.2186C35.1063 13.147 35.1599 13.0613 35.1965 12.9665C35.2332 12.8716 35.252 12.7696 35.252 12.6666C35.252 12.5635 35.2332 12.4615 35.1965 12.3667C35.1599 12.2718 35.1063 12.1861 35.0389 12.1146L34.1141 11.1333H34.9964L36.4415 12.6666L34.7938 14.4146C34.7264 14.4861 34.6728 14.5718 34.6361 14.6667C34.5995 14.7615 34.5806 14.8635 34.5806 14.9665C34.5806 15.0696 34.5995 15.1716 34.6361 15.2664C34.6728 15.3613 34.7264 15.447 34.7938 15.5185L36.4415 17.2665L34.7938 19.0145C34.7264 19.086 34.6728 19.1718 34.6361 19.2666C34.5995 19.3614 34.5806 19.4634 34.5806 19.5665C34.5806 19.6695 34.5995 19.7715 34.6361 19.8664C34.6728 19.9612 34.7264 20.047 34.7938 20.1185L36.4415 21.8665L34.7938 23.6144C34.7264 23.686 34.6728 23.7717 34.6361 23.8665C34.5995 23.9614 34.5806 24.0634 34.5806 24.1664C34.5806 24.2695 34.5995 24.3715 34.6361 24.4663C34.6728 24.5612 34.7264 24.6469 34.7938 24.7184L36.4415 26.4664L36.2646 26.6542C36.196 26.7234 36.1407 26.8069 36.1019 26.8999C36.0631 26.993 36.0416 27.0936 36.0387 27.1959C36.0359 27.2982 36.0516 27.4001 36.0851 27.4957C36.1185 27.5912 36.169 27.6783 36.2336 27.752C36.2981 27.8257 36.3755 27.8844 36.4609 27.9246C36.5464 27.9649 36.6384 27.9859 36.7314 27.9864C36.8244 27.9869 36.9165 27.9669 37.0024 27.9276C37.0882 27.8883 37.166 27.8304 37.2313 27.7575L37.9277 27.0184C37.9951 26.9469 38.0487 26.8611 38.0853 26.7663C38.1219 26.6715 38.1408 26.5695 38.1408 26.4664C38.1408 26.3634 38.1219 26.2614 38.0853 26.1665C38.0487 26.0717 37.9951 25.9859 37.9277 25.9144L36.2806 24.1664L37.9277 22.4185C37.9951 22.3469 38.0487 22.2612 38.0853 22.1664C38.1219 22.0715 38.1408 21.9695 38.1408 21.8665C38.1408 21.7634 38.1219 21.6614 38.0853 21.5666C38.0487 21.4717 37.9951 21.386 37.9277 21.3145L36.2806 19.5665L37.9277 17.8185C37.9951 17.747 38.0487 17.6613 38.0853 17.5664C38.1219 17.4716 38.1408 17.3696 38.1408 17.2665C38.1408 17.1635 38.1219 17.0615 38.0853 16.9666C38.0487 16.8718 37.9951 16.786 37.9277 16.7145L36.2806 14.9665L37.9277 13.2186C37.9951 13.147 38.0487 13.0613 38.0853 12.9665C38.1219 12.8716 38.1408 12.7696 38.1408 12.6666C38.1408 12.5635 38.1219 12.4615 38.0853 12.3667C38.0487 12.2718 37.9951 12.1861 37.9277 12.1146L37.0028 11.1333H49.2837C49.4684 11.1333 49.6455 11.0525 49.7761 10.9087C49.9067 10.7649 49.9801 10.5699 49.9801 10.3666V5.76666C49.9801 5.56333 49.9067 5.36832 49.7761 5.22455C49.6455 5.08077 49.4684 5 49.2837 5ZM12.3729 6.53331H48.5872V7.29997H12.3729V6.53331ZM34.9964 9.59994H34.1141L34.8363 8.83329H35.7186L34.9964 9.59994ZM19.6701 9.59994L20.3923 8.83329H21.274L20.5525 9.59994H19.6701ZM23.2811 8.83329H24.1628L23.4406 9.59994H22.5589L23.2811 8.83329ZM26.1699 8.83329H27.0523L26.3301 9.59994H25.4477L26.1699 8.83329ZM29.0587 8.83329H29.9411L29.2189 9.59994H28.3365L29.0587 8.83329ZM31.9482 8.83329H32.8298L32.1076 9.59994H31.2253L31.9482 8.83329ZM12.3729 8.83329H18.3852L17.6658 9.59994H12.3729V8.83329ZM48.5872 9.59994H37.0028L37.7229 8.83329H48.5872V9.59994Z" fill="#E7E7E7"/>
<path d="M29.9801 55C23.4816 55.0282 17.2299 52.5128 12.5619 47.9916C7.89382 43.4704 5.1799 37.3024 5.0004 30.8063C4.99705 30.7016 5.01478 30.5973 5.05254 30.4996C5.0903 30.4019 5.14731 30.3128 5.22019 30.2376C5.29308 30.1624 5.38034 30.1026 5.47679 30.0618C5.57324 30.021 5.67692 29.9999 5.78165 30H54.1801C54.2848 29.9999 54.3885 30.021 54.485 30.0618C54.5814 30.1026 54.6687 30.1624 54.7415 30.2376C54.8144 30.3128 54.8714 30.4019 54.9092 30.4996C54.947 30.5973 54.9647 30.7016 54.9613 30.8063C54.7818 37.3026 52.0677 43.4709 47.3993 47.9922C42.7309 52.5134 36.4789 55.0286 29.9801 55ZM6.60118 31.5625C6.99538 37.4946 9.6299 43.0551 13.9709 47.1172C18.312 51.1794 24.0349 53.4394 29.9801 53.4394C35.9253 53.4394 41.6482 51.1794 45.9892 47.1172C50.3303 43.0551 52.9648 37.4946 53.359 31.5625H6.60118Z" fill="#E7E7E7"/>
</g>
<defs>
<clipPath id="clip0_123_612">
<rect width="49.9617" height="50.0002" fill="white" transform="translate(5 5)"/>
</clipPath>
</defs>
</svg>
