<svg width="25" height="25" viewBox="0 0 25 25" fill="none" xmlns="http://www.w3.org/2000/svg">
<path d="M25 11.5854H22.125C21.75 10.2439 21.125 8.90244 20.25 7.92683L24.5 1.34146L22.375 0L18.375 6.21951C17.875 5.85366 17.5 5.60976 16.875 5.36585L18 0.97561L15.625 0.365854L14.625 4.51219C13.875 4.39024 13.25 4.26829 12.5 4.26829C7.875 4.26829 4 7.43902 2.875 11.5854H0C0 16.5854 3.125 20.8537 7.5 22.8049V25H17.5V22.8049C21.875 20.8537 25 16.5854 25 11.5854ZM12.5 6.70732C15.75 6.70732 18.5 8.78049 19.5 11.5854H5.5C6.5 8.78049 9.25 6.70732 12.5 6.70732Z" fill="url(#paint0_linear_425_73)"/>
<defs>
<linearGradient id="paint0_linear_425_73" x1="24" y1="17.5" x2="3.5" y2="8.5" gradientUnits="userSpaceOnUse">
<stop stop-color="#4D0707"/>
<stop offset="0.333333" stop-color="#9C1616"/>
<stop offset="0.666667" stop-color="#B06169"/>
<stop offset="1" stop-color="#9C1616"/>
</linearGradient>
</defs>
</svg>
