<svg width="51" height="51" viewBox="0 0 51 51" fill="none" xmlns="http://www.w3.org/2000/svg">
<path d="M35.6196 0.328766C33.0674 0.328303 30.6557 1.71766 29.5724 3.99593C28.6625 3.48003 27.6477 3.21735 26.6222 3.49217C25.4576 3.98768 24.6444 4.81182 24.1364 5.74424C21.1835 4.81338 18.007 4.96423 15.3759 6.06956C12.5888 7.26539 10.3532 9.45439 9.0965 12.199L7.24711 11.1314C5.53273 10.326 3.51137 10.9328 2.89449 12.559C2.05783 14.8935 1.4522 18.2571 3.03663 21.7507H2.566C1.16333 21.7507 0.0964251 23.0878 0.411801 24.4545L4.70282 43.0669C5.12849 44.9114 6.76938 46.2299 8.65587 46.265L8.37475 47.9075C8.03299 49.2745 9.0612 50.6713 10.4942 50.6713H40.4413C41.8743 50.6713 42.9009 49.2745 42.5592 47.9075L42.2797 46.265C44.1654 46.2293 45.7992 44.9109 46.2248 43.0669L50.5221 24.4545C50.7915 23.2874 50.0522 22.1442 48.957 21.8344C48.6438 20.6978 48.0057 19.6784 47.125 18.9031C47.6894 16.9548 47.2379 14.8302 45.8963 13.2744C44.5621 11.7275 42.5444 10.9728 40.5456 11.2324C40.2091 10.393 39.5451 9.76344 38.7546 9.2993C40.5233 6.73296 40.1045 3.0843 37.796 0.775726C37.6951 0.675224 37.5703 0.603704 37.4327 0.567358C36.8311 0.405872 36.2213 0.328766 35.6196 0.328766ZM36.7583 2.16075C38.4926 4.08939 38.6956 6.99551 37.0726 8.81914L35.6291 9.04798C35.187 9.11677 34.8848 9.53152 34.9548 9.97346C35.0236 10.4156 35.4383 10.7179 35.8802 10.6478L37.379 10.4078C38.3169 10.8188 38.938 11.3978 39.1036 12.0155C39.2451 12.5432 39.0973 13.1986 38.6614 13.9076C38.2579 14.5638 37.6247 15.229 36.9226 15.7633L35.7491 15.686C35.3023 15.6584 34.9171 15.997 34.89 16.444C34.8613 16.8909 35.2011 17.2762 35.6481 17.3032L36.4093 17.3505C36.3307 18.0437 35.8932 18.8923 35.1885 19.6737C34.307 20.651 33.0577 21.4674 32.1278 21.7505H26.4185C26.7643 21.119 27.1152 20.4898 27.4688 19.8617L30.8896 18.9456C31.3223 18.8307 31.5793 18.3861 31.4629 17.9538C31.3472 17.5225 30.9039 17.2666 30.4726 17.3821L28.5932 17.8844C29.3035 16.6478 30.024 15.4142 30.7443 14.1792L34.1667 13.2633C34.5994 13.1484 34.8564 12.7037 34.74 12.2714C34.625 11.8394 34.1815 11.5827 33.7497 11.6981L31.8972 12.1972C32.4923 11.1729 33.0861 10.1461 33.6723 9.11438C33.8894 8.72689 33.7533 8.23676 33.3675 8.01671C32.979 7.79521 32.4844 7.93086 32.2636 8.31992C31.6788 9.34914 31.0855 10.3758 30.49 11.4011L29.9894 9.53283C29.8745 9.10011 29.4298 8.84313 28.9976 8.95954C28.5656 9.07443 28.3088 9.51797 28.4243 9.94979L29.345 13.3674C28.6299 14.5944 27.9152 15.8223 27.2066 17.0567L26.7123 15.2089C26.5974 14.7762 26.1528 14.5192 25.7205 14.6356C25.2885 14.7505 25.0317 15.1941 25.1472 15.6259L26.0711 19.0562C25.5687 19.9492 25.0714 20.8471 24.5833 21.7505H23.6958C22.1806 20.2746 21.6567 18.0891 21.5905 16.1644C21.5261 13.8221 22.2014 11.4851 23.8347 10.1503L24.1933 10.6905C24.4405 11.0626 24.9426 11.1637 25.3146 10.9164C25.6872 10.6697 25.7891 10.1674 25.542 9.79502L24.8897 8.81266C25.1107 7.19599 25.6237 5.74182 27.0392 5.04916C27.6562 4.88377 28.474 5.13508 29.2992 5.74253L29.8393 7.15599C29.9991 7.57278 30.4663 7.78135 30.8832 7.62186C31.3001 7.46208 31.5086 6.99487 31.3491 6.57794L30.8264 5.20869C31.5543 2.49199 34.3822 1.83629 36.7583 2.16075ZM23.5915 7.12301C23.4559 7.58542 23.3568 8.06094 23.293 8.53648C22.9365 8.77505 22.613 9.04363 22.3202 9.33563C18.1167 8.45714 14.0837 10.5599 12.5584 14.1952L10.3899 12.9444C11.4822 10.4744 13.4708 8.50605 15.9618 7.43724C18.5202 6.44956 21.1747 6.32866 23.5915 7.12301ZM20.0854 10.5406C20.491 10.5358 20.8987 10.5651 21.3015 10.6339C20.3024 12.268 19.9254 14.2925 19.978 16.2057C20.0012 17.0463 20.1071 17.873 20.2844 18.6552L13.8629 14.9486C15.161 12.2906 17.2953 10.6023 20.0854 10.5406ZM6.44006 12.529L7.91357 13.3803C7.45614 14.3781 7.07947 15.695 7.17445 17.1959C7.26546 18.6342 7.81825 20.2204 9.08859 21.7507H4.84494C3.05275 18.4825 3.60315 15.3777 4.41694 13.1071C4.70758 12.2278 5.65237 12.1538 6.44006 12.529ZM44.6723 14.331C45.5447 15.3426 45.8994 16.6774 45.6799 17.9619C44.4513 17.3915 43.0607 17.2491 41.7316 17.5671C40.9694 16.87 40.05 16.3432 39.0326 16.0462C39.4158 15.6465 39.7581 15.2147 40.0402 14.7559C40.4039 14.1642 40.6735 13.5096 40.7524 12.8338C42.1981 12.6674 43.8767 13.4386 44.6723 14.331ZM9.32549 14.1954L21.0978 20.9896C21.23 21.2567 21.3732 21.512 21.5289 21.7509H11.3344C9.48373 20.1103 8.88128 18.5111 8.79167 17.095C8.72213 15.9959 8.98721 14.9837 9.32549 14.1954ZM12.721 17.4646C12.4317 17.4655 12.1649 17.6207 12.0214 17.8721L11.5792 18.6301C11.3524 19.0188 11.4866 19.5178 11.8777 19.7404C12.2653 19.9638 12.7608 19.8302 12.9832 19.4418L13.4191 18.6774C13.6423 18.2914 13.5109 17.7975 13.1253 17.5735C13.0025 17.5023 12.863 17.4648 12.721 17.4646ZM38.0376 17.4743C40.2097 17.8601 41.9129 19.5737 42.2797 21.7528H35.3575C35.7246 21.4474 36.0726 21.1121 36.3936 20.7562C37.2501 19.8065 37.9432 18.6698 38.0376 17.4743ZM45.503 19.7059C46.281 20.1987 46.8798 20.9161 47.2261 21.7528H43.9095C43.7821 20.7608 43.4431 19.8353 42.9382 19.0221C43.8442 19.027 44.848 19.3008 45.503 19.7059ZM15.6996 19.1864C15.4107 19.1869 15.1439 19.3415 15 19.5922L14.5578 20.3566C14.3354 20.7439 14.469 21.2381 14.8563 21.4606C15.2439 21.684 15.7394 21.5503 15.9618 21.162L16.4024 20.3976C16.6249 20.0103 16.4912 19.5161 16.1039 19.2937C15.9809 19.2229 15.8415 19.1861 15.6996 19.1864ZM10.2952 46.2686H28.9913C29.4366 46.2677 29.7974 45.9069 29.7983 45.4616C29.7999 45.0144 29.4385 44.6507 28.9913 44.6498H8.73328C7.55864 44.6498 6.54313 43.8486 6.279 42.7041L2.83605 27.7763H18.4208C18.8675 27.7747 19.228 27.4112 19.2263 26.9645C19.2246 26.5201 18.8652 26.1606 18.4208 26.1591H2.46333L1.98795 24.0996C1.89806 23.7101 2.16628 23.37 2.56598 23.37H48.368C48.7677 23.37 49.0359 23.7102 48.946 24.0997L48.4706 26.1591H22.8256C22.3788 26.1573 22.0153 26.5178 22.0138 26.9646C22.0122 27.4136 22.3765 27.7781 22.8256 27.7763H48.0963L44.6487 42.7041C44.3846 43.8486 43.3754 44.6498 42.2007 44.6498H33.3913C32.9447 44.6516 32.584 45.015 32.5858 45.4616C32.5866 45.9063 32.9465 46.2669 33.3913 46.2686H40.6388L40.9783 48.2443C40.9817 48.2639 40.9832 48.2804 40.9893 48.2982C41.0816 48.6674 40.7979 49.0563 40.4413 49.0563H10.4942C10.1377 49.0563 9.85235 48.6674 9.94463 48.2982L10.2952 46.2686ZM6.08787 29.6788C5.64313 29.6805 5.28328 30.041 5.28242 30.4857C5.2808 30.9323 5.64128 31.2958 6.08787 31.2975H6.97229C7.41888 31.2958 7.7795 30.9323 7.77775 30.4857C7.77694 30.041 7.41703 29.6805 6.97229 29.6788H6.08787ZM10.4942 29.6788C10.047 29.677 9.68328 30.0385 9.68241 30.4857C9.68079 30.9348 10.0451 31.2993 10.4942 31.2975H11.3707C11.8198 31.2993 12.1842 30.9348 12.1825 30.4857C12.1817 30.0385 11.8179 29.677 11.3707 29.6788H10.4942ZM14.8989 29.6788C14.4517 29.677 14.088 30.0385 14.0871 30.4857C14.0855 30.9348 14.4499 31.2993 14.8989 31.2975H15.777C16.2261 31.2993 16.5905 30.9348 16.5888 30.4857C16.588 30.0385 16.2242 29.677 15.777 29.6788H14.8989ZM8.73324 41.1288C8.28419 41.127 7.91971 41.4915 7.92147 41.9406C7.92308 42.3872 8.28665 42.7478 8.73324 42.7461H23.7036C24.1502 42.7478 24.5137 42.3872 24.5154 41.9406C24.517 41.4915 24.1527 41.127 23.7036 41.1288H8.73324Z" fill="#E7E7E7"/>
</svg>
