<svg width="53" height="40" viewBox="0 0 53 40" fill="none" xmlns="http://www.w3.org/2000/svg">
<g clip-path="url(#clip0_123_564)">
<path d="M13.4008 27.2955C13.3569 27.4087 13.2756 27.5034 13.1703 27.5638C13.065 27.6242 12.9422 27.6466 12.8224 27.6274C12.7025 27.6081 12.593 27.5483 12.5119 27.4579C12.4308 27.3676 12.3832 27.2521 12.377 27.1309L16.7647 0.500771C16.8086 0.38757 16.89 0.292856 16.9953 0.232448C17.1005 0.17204 17.2234 0.149595 17.3432 0.168861C17.463 0.188127 17.5726 0.247938 17.6537 0.338305C17.7347 0.428672 17.7823 0.544124 17.7885 0.665381L13.4008 27.2955Z" fill="#E7E7E7"/>
<path d="M6.32562 34.2639V37.7024C6.31864 37.9724 6.38837 38.2387 6.52673 38.4706C6.52673 38.5803 6.69127 38.6535 6.76439 38.6535H8.59261C8.59261 38.6535 8.73887 38.6535 8.83028 38.4706C9.00757 38.2509 9.11574 37.9836 9.14108 37.7024V34.2639C9.14463 34.0002 9.07501 33.7406 8.93997 33.514C8.93997 33.4043 8.77543 33.3311 8.7023 33.3311H6.87409C6.87409 33.3311 6.72783 33.3311 6.63642 33.514C6.50138 33.7406 6.43176 34.0002 6.43532 34.2639M5.39323 37.7024V34.2639C5.38981 33.7994 5.51648 33.3432 5.75888 32.947C5.87136 32.7482 6.03296 32.5816 6.22822 32.4631C6.42347 32.3446 6.64586 32.2782 6.87409 32.2703H8.7023C8.93054 32.2782 9.15292 32.3446 9.34818 32.4631C9.54343 32.5816 9.70503 32.7482 9.81752 32.947C10.0608 33.3428 10.1876 33.7993 10.1832 34.2639V37.7024C10.1876 38.1671 10.0608 38.6235 9.81752 39.0193C9.70503 39.2181 9.54343 39.3848 9.34818 39.5032C9.15292 39.6217 8.93054 39.6881 8.7023 39.696H6.87409C6.64586 39.6881 6.42347 39.6217 6.22822 39.5032C6.03296 39.3848 5.87136 39.2181 5.75888 39.0193C5.47766 38.6349 5.31268 38.1779 5.28354 37.7024H5.39323Z" fill="#E7E7E7"/>
<path d="M43.8772 34.2639V37.7024C43.8702 37.9724 43.94 38.2387 44.0783 38.4706C44.0783 38.5803 44.2428 38.6535 44.316 38.6535H46.1442C46.1442 38.6535 46.2905 38.6535 46.3819 38.4706C46.5202 38.2387 46.5899 37.9724 46.583 37.7024V34.2639C46.5865 34.0002 46.5169 33.7406 46.3819 33.514C46.3819 33.4043 46.2173 33.3311 46.1442 33.3311H44.316C44.316 33.3311 44.1697 33.3311 44.0783 33.514C43.9433 33.7406 43.8737 34.0002 43.8772 34.2639ZM42.8351 37.7024V34.2639C42.8317 33.7994 42.9584 33.3432 43.2008 32.947C43.3132 32.7482 43.4748 32.5816 43.6701 32.4631C43.8654 32.3446 44.0877 32.2782 44.316 32.2703H46.1442C46.3724 32.2782 46.5948 32.3446 46.7901 32.4631C46.9853 32.5816 47.1469 32.7482 47.2594 32.947C47.5018 33.3432 47.6285 33.7994 47.625 34.2639V37.7024C47.6285 38.1669 47.5018 38.6231 47.2594 39.0193C47.1469 39.2181 46.9853 39.3848 46.7901 39.5032C46.5948 39.6217 46.3724 39.6881 46.1442 39.696H44.316C44.0877 39.6881 43.8654 39.6217 43.6701 39.5032C43.4748 39.3848 43.3132 39.2181 43.2008 39.0193C42.9775 38.6175 42.8699 38.1617 42.89 37.7024H42.8351Z" fill="#E7E7E7"/>
<path d="M51.5374 29.728H1.46257C1.36091 29.7302 1.26348 29.7692 1.18834 29.8378C1.10888 29.9147 1.06291 30.0198 1.06037 30.1304V31.9594C1.06037 32.0709 1.10467 32.1779 1.18352 32.2568C1.26238 32.3357 1.36933 32.38 1.48086 32.38H51.5374C51.648 32.3775 51.7531 32.3315 51.8299 32.252C51.9094 32.1751 51.9554 32.07 51.9579 31.9594V30.1304C51.9554 30.0198 51.9094 29.9147 51.8299 29.8378C51.7531 29.7583 51.648 29.7123 51.5374 29.7097M1.46257 28.6855H51.5374C51.7316 28.6858 51.9237 28.7248 52.1026 28.8001C52.2815 28.8755 52.4436 28.9858 52.5795 29.1244C52.7181 29.2604 52.8283 29.4226 52.9037 29.6016C52.979 29.7806 53.018 29.9728 53.0183 30.167V31.996C53.0135 32.3825 52.8579 32.752 52.5847 33.0253C52.3114 33.2987 51.9421 33.4544 51.5557 33.4591H1.46257C1.07615 33.4544 0.706886 33.2987 0.433621 33.0253C0.160357 32.752 0.00474195 32.3825 0 31.996L0 30.167C0.000319175 29.9728 0.0392803 29.7806 0.114612 29.6016C0.189944 29.4226 0.300139 29.2604 0.438772 29.1244C0.708808 28.8488 1.07679 28.691 1.46257 28.6855Z" fill="#E7E7E7"/>
<path d="M14.516 16.3581H8.5012C7.70116 16.3581 6.93389 16.6761 6.36818 17.242C5.80246 17.808 5.48465 18.5756 5.48465 19.3759V25.2104C5.48448 25.6044 5.56189 25.9945 5.71247 26.3586C5.86304 26.7226 6.08381 27.0534 6.36219 27.332C6.64073 27.6105 6.97139 27.8314 7.33527 27.982C7.69914 28.1327 8.08912 28.2101 8.48292 28.21H14.516C14.9111 28.2077 15.3019 28.1274 15.6658 27.9736C16.0298 27.8198 16.3597 27.5956 16.6368 27.3138C16.9151 27.0351 17.1359 26.7043 17.2865 26.3403C17.4371 25.9762 17.5145 25.5861 17.5143 25.1921V19.3759C17.5143 18.5787 17.199 17.8139 16.6373 17.2484C16.0755 16.683 15.3129 16.3629 14.516 16.3581ZM8.48292 15.3156H14.516C15.0505 15.3169 15.5794 15.4242 16.0721 15.6314C16.5648 15.8386 17.0115 16.1416 17.3863 16.5227C18.1447 17.2787 18.5721 18.3049 18.5747 19.3759V25.2104C18.5721 26.2814 18.1447 27.3076 17.3863 28.0636C17.0161 28.4547 16.5714 28.7678 16.0785 28.9845C15.5856 29.2012 15.0544 29.3172 14.516 29.3256H8.5012C7.43064 29.323 6.40488 28.8954 5.64919 28.1368C4.89087 27.3808 4.46347 26.3546 4.46085 25.2836V19.3759C4.46084 18.3022 4.88593 17.2722 5.64312 16.5113C6.40032 15.7503 7.42796 15.3204 8.5012 15.3156H8.48292Z" fill="#E7E7E7"/>
<path d="M12.9072 19.3028H10.3111C9.78589 19.3006 9.28063 19.5041 8.90341 19.8698C8.71361 20.0559 8.56257 20.2778 8.45901 20.5227C8.35546 20.7675 8.30144 21.0305 8.3001 21.2964V23.3083C8.3001 23.8467 8.5139 24.3631 8.89447 24.7438C9.27504 25.1245 9.79121 25.3384 10.3294 25.3384H12.9072C13.4454 25.3384 13.9616 25.1245 14.3422 24.7438C14.7227 24.3631 14.9365 23.8467 14.9365 23.3083V21.2964C14.9365 20.7579 14.7227 20.2416 14.3422 19.8608C13.9616 19.4801 13.4454 19.2662 12.9072 19.2662M10.3111 18.2603H12.9072C13.7218 18.2603 14.503 18.584 15.079 19.1602C15.655 19.7365 15.9786 20.518 15.9786 21.333V23.3448C15.9778 24.1546 15.6555 24.9309 15.0828 25.5031C14.5109 26.0761 13.7349 26.3984 12.9255 26.3993H10.3111C9.50172 26.3984 8.72576 26.0761 8.15384 25.5031C7.60114 24.922 7.29906 24.1468 7.31286 23.3448V21.333C7.31087 20.9289 7.38902 20.5285 7.54279 20.1549C7.69656 19.7813 7.9229 19.4419 8.20869 19.1565C8.7671 18.5967 9.52077 18.2754 10.3111 18.2603Z" fill="#E7E7E7"/>
<path d="M13.4008 27.1309C13.3946 27.2521 13.347 27.3676 13.266 27.4579C13.1849 27.5483 13.0753 27.6081 12.9555 27.6274C12.8357 27.6466 12.7128 27.6242 12.6076 27.5638C12.5023 27.5034 12.4209 27.4087 12.377 27.2955L7.97104 0.665383C7.95218 0.593673 7.94855 0.518803 7.9604 0.445605C7.97225 0.372408 7.99931 0.30251 8.03984 0.240422C8.08036 0.178334 8.13344 0.125436 8.19567 0.0851427C8.25789 0.0448493 8.32786 0.0180554 8.40108 0.00649063C8.47429 -0.00507419 8.54911 -0.00115303 8.62072 0.018001C8.69232 0.0371551 8.75912 0.0711164 8.81679 0.117693C8.87446 0.16427 8.92173 0.222427 8.95555 0.28841C8.98937 0.354394 9.00898 0.426738 9.01312 0.500774L13.4008 27.1309Z" fill="#E7E7E7"/>
<path d="M29.4708 16.3581H23.4377C22.644 16.3629 21.8842 16.6805 21.3229 17.242C20.7617 17.8035 20.4443 18.5636 20.4395 19.3577V25.1921C20.4393 25.5861 20.5167 25.9763 20.6673 26.3403C20.8178 26.7043 21.0386 27.0351 21.317 27.3138C21.5955 27.5923 21.9262 27.8131 22.2901 27.9638C22.654 28.1144 23.0439 28.1919 23.4377 28.1917H29.4708C29.8646 28.1919 30.2546 28.1144 30.6185 27.9638C30.9824 27.8131 31.313 27.5923 31.5916 27.3138C31.87 27.0351 32.0907 26.7043 32.2413 26.3403C32.3919 25.9763 32.4693 25.5861 32.4691 25.1921V19.376C32.4643 18.5819 32.1469 17.8218 31.5856 17.2603C31.0244 16.6988 30.2646 16.3812 29.4708 16.3764M23.4377 15.3339H29.4708C30.5414 15.3365 31.5672 15.7641 32.3229 16.5227C33.0812 17.2787 33.5086 18.3049 33.5112 19.376V25.2104C33.5086 26.2815 33.0812 27.3076 32.3229 28.0637C31.5672 28.8223 30.5414 29.2499 29.4708 29.2525H23.4377C22.3672 29.2499 21.3414 28.8223 20.5857 28.0637C19.8274 27.3076 19.4 26.2815 19.3974 25.2104V19.376C19.4022 18.3054 19.8294 17.2801 20.5861 16.5231C21.3428 15.7661 22.3676 15.3387 23.4377 15.3339Z" fill="#E7E7E7"/>
<path d="M27.8437 19.3028H25.2477C24.7224 19.3006 24.2172 19.5041 23.84 19.8698C23.6501 20.0559 23.4991 20.2778 23.3956 20.5227C23.292 20.7675 23.238 21.0305 23.2366 21.2964V23.3083C23.2366 23.8467 23.4504 24.3631 23.831 24.7438C24.2116 25.1246 24.7277 25.3385 25.266 25.3385H27.862C28.1285 25.3385 28.3924 25.2859 28.6386 25.1839C28.8848 25.0819 29.1085 24.9324 29.297 24.7438C29.4854 24.5553 29.6349 24.3315 29.7369 24.0852C29.8389 23.8389 29.8913 23.5749 29.8913 23.3083V21.2964C29.8913 20.758 29.6775 20.2416 29.297 19.8608C28.9164 19.4801 28.4002 19.2662 27.862 19.2662M25.266 18.2237H27.862C28.6766 18.2237 29.4578 18.5474 30.0338 19.1237C30.6098 19.6999 30.9334 20.4815 30.9334 21.2964V23.3083C30.9326 24.118 30.6104 24.8943 30.0376 25.4665C29.4657 26.0395 28.6897 26.3619 27.8803 26.3627H25.2477C24.4383 26.3619 23.6623 26.0395 23.0904 25.4665C22.5176 24.8943 22.1954 24.118 22.1946 23.3083V21.2964C22.1926 20.8924 22.2707 20.492 22.4245 20.1184C22.5783 19.7447 22.8046 19.4054 23.0904 19.1199C23.6682 18.5603 24.4435 18.2514 25.2477 18.2603L25.266 18.2237Z" fill="#E7E7E7"/>
<path d="M44.2794 16.3581H38.2463C37.4526 16.3629 36.6927 16.6805 36.1315 17.242C35.5702 17.8035 35.2528 18.5636 35.248 19.3577V25.1921C35.2479 25.5861 35.3253 25.9763 35.4758 26.3403C35.6264 26.7043 35.8472 27.0351 36.1256 27.3138C36.4041 27.5923 36.7348 27.8131 37.0986 27.9638C37.4625 28.1144 37.8525 28.1919 38.2463 28.1917H44.2794C44.6732 28.1919 45.0632 28.1144 45.4271 27.9638C45.7909 27.8131 46.1216 27.5923 46.4001 27.3138C46.6785 27.0351 46.8993 26.7043 47.0499 26.3403C47.2004 25.9763 47.2778 25.5861 47.2777 25.1921V19.376C47.2729 18.5819 46.9555 17.8218 46.3942 17.2603C45.833 16.6988 45.0731 16.3812 44.2794 16.3764M38.2463 15.3339H44.2794C45.35 15.3365 46.3757 15.7641 47.1314 16.5227C47.8897 17.2787 48.3171 18.3049 48.3198 19.376V25.2104C48.3171 26.2815 47.8897 27.3076 47.1314 28.0637C46.3757 28.8223 45.35 29.2499 44.2794 29.2525H38.2463C37.1757 29.2499 36.15 28.8223 35.3943 28.0637C34.636 27.3076 34.2086 26.2815 34.2059 25.2104V19.376C34.2107 18.3054 34.638 17.2801 35.3946 16.5231C36.1513 15.7661 37.1762 15.3387 38.2463 15.3339Z" fill="#E7E7E7"/>
<path d="M42.6706 19.3028H40.0745C39.5493 19.3006 39.044 19.5041 38.6668 19.8698C38.477 20.0559 38.3259 20.2778 38.2224 20.5227C38.1188 20.7675 38.0648 21.0305 38.0635 21.2964V23.3083C38.0635 23.8467 38.2773 24.3631 38.6579 24.7438C39.0384 25.1246 39.5546 25.3385 40.0928 25.3385H42.6889C43.2271 25.3385 43.7432 25.1246 44.1238 24.7438C44.5044 24.3631 44.7182 23.8467 44.7182 23.3083V21.2964C44.7182 20.758 44.5044 20.2416 44.1238 19.8608C43.7432 19.4801 43.2271 19.2662 42.6889 19.2662M40.0928 18.2237H42.6889C43.5003 18.2381 44.273 18.5733 44.8382 19.1558C45.4034 19.7384 45.7152 20.5211 45.7054 21.333V23.3449C45.7046 24.1546 45.3824 24.9309 44.8096 25.5031C44.2377 26.0761 43.4617 26.3984 42.6523 26.3993H40.0745C39.2651 26.3984 38.4891 26.0761 37.9172 25.5031C37.3445 24.9309 37.0222 24.1546 37.0214 23.3449V21.333C37.0194 20.9289 37.0976 20.5285 37.2513 20.1549C37.4051 19.7813 37.6314 19.442 37.9172 19.1565C38.4891 18.5835 39.2651 18.2611 40.0745 18.2603L40.0928 18.2237Z" fill="#E7E7E7"/>
<path d="M36.5643 3.07966H30.5312C29.7375 3.08446 28.9777 3.40202 28.4164 3.96351C27.8552 4.525 27.5377 5.28516 27.533 6.07921V11.9137C27.5328 12.3077 27.6102 12.6978 27.7608 13.0618C27.9113 13.4259 28.1321 13.7566 28.4105 14.0353C28.689 14.3138 29.0197 14.5347 29.3836 14.6853C29.7475 14.8359 30.1374 14.9134 30.5312 14.9132H36.5643C37.3581 14.9084 38.1179 14.5909 38.6791 14.0294C39.2404 13.4679 39.5578 12.7077 39.5626 11.9137V6.07921C39.5578 5.28516 39.2404 4.525 38.6791 3.96351C38.1179 3.40202 37.3581 3.08446 36.5643 3.07966ZM30.5312 2.03714H36.5643C37.6349 2.03976 38.6607 2.46734 39.4164 3.22598C40.1747 3.98199 40.6021 5.00819 40.6047 6.07921V11.9137C40.5999 12.9842 40.1727 14.0095 39.416 14.7665C38.6593 15.5235 37.6344 15.9509 36.5643 15.9557H30.5312C29.4692 15.9194 28.4643 15.466 27.7341 14.6937C26.9757 13.9377 26.5483 12.9115 26.5457 11.8405V6.07921C26.5505 5.00867 26.9777 3.98334 27.7344 3.22635C28.4911 2.46936 29.516 2.04195 30.5861 2.03714H30.5312Z" fill="#E7E7E7"/>
<path d="M35.0104 6.02433H32.396C31.8708 6.02216 31.3655 6.22566 30.9883 6.59132C30.7985 6.77744 30.6474 6.99934 30.5439 7.24421C30.4403 7.48908 30.3863 7.75205 30.385 8.01793V10.0298C30.385 10.5683 30.5988 11.0846 30.9793 11.4654C31.3599 11.8461 31.8761 12.06 32.4143 12.06H35.0104C35.5486 12.06 36.0647 11.8461 36.4453 11.4654C36.8259 11.0846 37.0397 10.5683 37.0397 10.0298V8.03622C37.0397 7.49779 36.8259 6.9814 36.4453 6.60067C36.0647 6.21994 35.5486 6.00604 35.0104 6.00604M32.4143 4.96352H35.0104C35.8249 4.96352 36.6062 5.28725 37.1822 5.86349C37.7582 6.43974 38.0818 7.22129 38.0818 8.03622V10.0481C38.0809 10.8579 37.7587 11.6342 37.1859 12.2063C36.9006 12.4922 36.5613 12.7187 36.1879 12.8725C35.8145 13.0263 35.4142 13.1045 35.0104 13.1025H32.396C31.5866 13.1017 30.8106 12.7793 30.2387 12.2063C29.9385 11.9307 29.6965 11.5977 29.527 11.2271C29.3574 10.8564 29.2638 10.4556 29.2515 10.0481V8.03622C29.2495 7.63219 29.3276 7.23178 29.4814 6.85818C29.6352 6.48458 29.8615 6.14521 30.1473 5.85973C30.4413 5.56487 30.7924 5.33327 31.1791 5.17915C31.5658 5.02503 31.9799 4.95165 32.396 4.96352H32.4143Z" fill="#E7E7E7"/>
<path d="M52.3601 39.0193C52.4367 39.0049 52.5155 39.0075 52.591 39.027C52.6664 39.0466 52.7366 39.0825 52.7966 39.1323C52.8566 39.1821 52.9049 39.2444 52.938 39.315C52.9711 39.3856 52.9883 39.4626 52.9883 39.5405C52.9883 39.6185 52.9711 39.6955 52.938 39.7661C52.9049 39.8366 52.8566 39.899 52.7966 39.9488C52.7366 39.9986 52.6664 40.0345 52.591 40.054C52.5155 40.0736 52.4367 40.0762 52.3601 40.0618H6.6547C6.57811 40.0762 6.49929 40.0736 6.42385 40.054C6.3484 40.0345 6.27819 39.9986 6.2182 39.9488C6.15822 39.899 6.10994 39.8366 6.07681 39.7661C6.04367 39.6955 6.02649 39.6185 6.02649 39.5405C6.02649 39.4626 6.04367 39.3856 6.07681 39.315C6.10994 39.2444 6.15822 39.1821 6.2182 39.1323C6.27819 39.0825 6.3484 39.0466 6.42385 39.027C6.49929 39.0075 6.57811 39.0049 6.6547 39.0193H52.3601Z" fill="#E7E7E7"/>
</g>
<defs>
<clipPath id="clip0_123_564">
<rect width="53" height="40" fill="white"/>
</clipPath>
</defs>
</svg>
