<svg width="55" height="55" viewBox="0 0 55 55" fill="none" xmlns="http://www.w3.org/2000/svg">
<path d="M27.5 47.4397C16.5061 47.4397 7.56032 38.4948 7.56032 27.5C7.56032 16.5052 16.5061 7.55945 27.5 7.55945C38.4956 7.55945 47.4406 16.5052 47.4406 27.5C47.4406 38.4948 38.4956 47.4397 27.5 47.4397ZM27.5 10.1785C17.9501 10.1785 10.1794 17.9492 10.1794 27.5C10.1794 37.0508 17.9501 44.8206 27.5 44.8206C37.0517 44.8206 44.8215 37.0508 44.8215 27.5C44.8215 17.9492 37.0517 10.1785 27.5 10.1785Z" fill="#E7E7E7"/>
<path d="M27.5 55C12.3366 55 0 42.6634 0 27.5C0 12.3366 12.3366 0 27.5 0C42.6634 0 55 12.3366 55 27.5C55 42.6634 42.6634 55 27.5 55ZM27.5 2.61905C13.7806 2.61905 2.61905 13.7806 2.61905 27.5C2.61905 41.2194 13.7806 52.381 27.5 52.381C41.2194 52.381 52.381 41.2194 52.381 27.5C52.381 13.7806 41.2194 2.61905 27.5 2.61905Z" fill="#E7E7E7"/>
<path d="M34.5103 21.6456C33.7866 21.6456 33.2008 21.0589 33.2008 20.336C33.2008 18.7533 30.9589 18.4119 30.8637 18.398C30.1505 18.2949 29.6511 17.6349 29.7498 16.9217C29.8484 16.2076 30.5049 15.7082 31.2164 15.8025C32.8079 16.0155 35.8198 17.2351 35.8198 20.336C35.8198 21.0589 35.2332 21.6456 34.5103 21.6456Z" fill="#E7E7E7"/>
<path d="M14.4048 32.7381C13.6819 32.7381 13.0952 32.1514 13.0952 31.4286C13.0952 28.3276 16.1063 27.1071 17.6987 26.895C18.4102 26.8025 19.0745 27.3027 19.1697 28.0194C19.2648 28.7353 18.7637 29.3918 18.0496 29.4905C17.9379 29.5071 15.7143 29.8519 15.7143 31.4286C15.7143 32.1514 15.1276 32.7381 14.4048 32.7381Z" fill="#E7E7E7"/>
<path d="M30.2352 40.2486C29.5123 40.2486 28.9256 39.662 28.9256 38.9391C28.9256 38.2154 29.5123 37.6296 30.2352 37.6296C31.8433 37.6296 32.1698 35.3222 32.1733 35.2986C32.2684 34.5819 32.9284 34.0825 33.6434 34.1742C34.361 34.2702 34.8648 34.9294 34.7679 35.6461C34.5557 37.2376 33.3352 40.2486 30.2352 40.2486Z" fill="#E7E7E7"/>
<path d="M37.6279 30.889C37.3782 30.889 37.1259 30.8183 36.9024 30.669L33.784 28.5895C33.1816 28.1879 33.0192 27.3751 33.4208 26.7736C33.8224 26.1713 34.6343 26.0098 35.2367 26.4105L38.3551 28.49C38.9566 28.8916 39.1198 29.7044 38.7183 30.3059C38.466 30.6848 38.0504 30.889 37.6279 30.889Z" fill="#E7E7E7"/>
<path d="M22.8372 19.7965C22.5875 19.7965 22.3352 19.7249 22.1117 19.5765L18.9942 17.497C18.3927 17.0954 18.2294 16.2826 18.631 15.6802C19.0326 15.0787 19.8454 14.9172 20.4469 15.3179L23.5644 17.3974C24.1668 17.799 24.3292 18.6118 23.9276 19.2142C23.6753 19.5922 23.2606 19.7965 22.8372 19.7965Z" fill="#E7E7E7"/>
<path d="M28.3835 29.9645C28.1338 29.9645 27.8815 29.8929 27.658 29.7445L24.5405 27.665C23.9381 27.2634 23.7757 26.4506 24.1773 25.8483C24.5789 25.2467 25.3917 25.0852 25.9932 25.486L29.1107 27.5655C29.7122 27.9671 29.8755 28.7798 29.4739 29.3822C29.2216 29.7602 28.806 29.9645 28.3835 29.9645Z" fill="#E7E7E7"/>
<path d="M25.1254 34.726C25.1254 35.4916 24.5047 36.1123 23.739 36.1123C22.9725 36.1123 22.3518 35.4916 22.3518 34.726C22.3518 33.9603 22.9725 33.3387 23.739 33.3387C24.5047 33.3387 25.1254 33.9603 25.1254 34.726Z" fill="#E7E7E7"/>
<path d="M28.8226 15.3136C28.8226 16.0801 28.2019 16.7008 27.4354 16.7008C26.6698 16.7008 26.049 16.0801 26.049 15.3136C26.049 14.5479 26.6698 13.9272 27.4354 13.9272C28.2019 13.9272 28.8226 14.5479 28.8226 15.3136Z" fill="#E7E7E7"/>
<path d="M42.6879 25.4816C42.6879 26.2481 42.0671 26.8688 41.3015 26.8688C40.5359 26.8688 39.9152 26.2481 39.9152 25.4816C39.9152 24.716 40.5359 24.0952 41.3015 24.0952C42.0671 24.0952 42.6879 24.716 42.6879 25.4816Z" fill="#E7E7E7"/>
<path d="M17.7301 23.6334C17.7301 24.3991 17.1094 25.0198 16.3437 25.0198C15.5772 25.0198 14.9565 24.3991 14.9565 23.6334C14.9565 22.8678 15.5772 22.2471 16.3437 22.2471C17.1094 22.2471 17.7301 22.8678 17.7301 23.6334Z" fill="#E7E7E7"/>
</svg>
