<svg width="60" height="32" viewBox="0 0 60 32" fill="none" xmlns="http://www.w3.org/2000/svg">
<path d="M5.55556 22.5247V19.565" stroke="#E7E7E7" stroke-width="2" stroke-miterlimit="10" stroke-linecap="round" stroke-linejoin="round"/>
<path d="M10.8333 8.53363L14.4444 14.1839" stroke="#E7E7E7" stroke-width="2" stroke-miterlimit="10" stroke-linecap="round" stroke-linejoin="round"/>
<path d="M15 5.84305L18.3333 12.3004" stroke="#E7E7E7" stroke-width="2" stroke-miterlimit="10" stroke-linecap="round" stroke-linejoin="round"/>
<path d="M17.867 4.18214C20.851 2.89879 23.8061 2.05404 26.6667 1.54639V21.6009C19.9084 23.0589 13.323 23.2051 9.41709 23.1198C7.17395 23.071 5.81571 22.9452 5.81571 22.9452C5.56465 25.9911 0 27.376 0 27.376C0 27.376 1.26769 11.33 17.867 4.18214Z" stroke="#E7E7E7" stroke-width="2" stroke-miterlimit="10" stroke-linecap="round" stroke-linejoin="round"/>
<path d="M59.9303 15.4064C59.1018 17.5901 57.7802 16.4729 57.7802 16.4729C55.614 15.1456 53.6417 14.2697 51.8877 13.7131C45.5992 11.7162 42.0589 13.7832 42.0589 13.7832C39.5289 15.928 36.522 17.5434 33.3333 18.7578V1C42.8146 1 50.1176 4.08291 51.6574 5.09886C53.9772 6.62475 60.7588 13.2265 59.9303 15.4064Z" stroke="#E7E7E7" stroke-width="2" stroke-miterlimit="10" stroke-linecap="round" stroke-linejoin="round"/>
<path d="M26.6667 21.3925L26.6667 30.0583H15.8684C10.1983 30.0583 9.40064 26.4509 9.52381 23.2387C13.4243 23.329 19.925 22.8672 26.6667 21.3925Z" stroke="#E7E7E7" stroke-width="2" stroke-miterlimit="10" stroke-linecap="round" stroke-linejoin="round"/>
<path d="M53.3333 19.9964C53.3333 29.8813 41.0618 30.0583 41.0618 30.0583H33.3333V18.9508C36.5309 17.6961 39.5501 16.0271 42.0831 13.8113C42.0831 13.8113 45.6332 11.6718 51.9392 13.7389C52.77 15.3917 53.3333 17.4508 53.3333 19.9964Z" stroke="#E7E7E7" stroke-width="2" stroke-miterlimit="10" stroke-linecap="round" stroke-linejoin="round"/>
<path d="M33.3333 1V30.0583H26.6667V1.62299C28.9774 1.18253 31.2133 1 33.3333 1Z" stroke="#E7E7E7" stroke-width="2" stroke-miterlimit="10" stroke-linecap="round" stroke-linejoin="round"/>
</svg>
