<svg width="15" height="14" viewBox="0 0 15 14" fill="none" xmlns="http://www.w3.org/2000/svg">
<g filter="url(#filter0_d_263_1150)">
<path d="M13.5 6.03125H12.0625C11.875 5.34375 11.5625 4.65625 11.125 4.15625L13.25 0.78125L12.1875 0.09375L10.1875 3.28125C9.9375 3.09375 9.75 2.96875 9.4375 2.84375L10 0.59375L8.8125 0.28125L8.3125 2.40625C7.9375 2.34375 7.625 2.28125 7.25 2.28125C4.9375 2.28125 3 3.90625 2.4375 6.03125H1C1 8.59375 2.5625 10.7812 4.75 11.7812V12.9062H9.75V11.7812C11.9375 10.7812 13.5 8.59375 13.5 6.03125ZM7.25 3.53125C8.875 3.53125 10.25 4.59375 10.75 6.03125H3.75C4.25 4.59375 5.625 3.53125 7.25 3.53125Z" fill="#992637"/>
</g>
<defs>
<filter id="filter0_d_263_1150" x="-1" y="0.09375" width="16.5" height="16.8125" filterUnits="userSpaceOnUse" color-interpolation-filters="sRGB">
<feFlood flood-opacity="0" result="BackgroundImageFix"/>
<feColorMatrix in="SourceAlpha" type="matrix" values="0 0 0 0 0 0 0 0 0 0 0 0 0 0 0 0 0 0 127 0" result="hardAlpha"/>
<feOffset dy="2"/>
<feGaussianBlur stdDeviation="1"/>
<feComposite in2="hardAlpha" operator="out"/>
<feColorMatrix type="matrix" values="0 0 0 0 0 0 0 0 0 0 0 0 0 0 0 0 0 0 0.25 0"/>
<feBlend mode="normal" in2="BackgroundImageFix" result="effect1_dropShadow_263_1150"/>
<feBlend mode="normal" in="SourceGraphic" in2="effect1_dropShadow_263_1150" result="shape"/>
</filter>
</defs>
</svg>
