<svg width="18" height="18" viewBox="0 0 18 18" fill="none" xmlns="http://www.w3.org/2000/svg">
<path d="M3.34943 0C1.51463 0 0 1.51463 0 3.34943V14.6506C0 16.4854 1.51463 18 3.34943 18H14.6506C16.4854 18 18 16.4854 18 14.6506V3.34943C18 1.51463 16.4854 0 14.6506 0H3.34943ZM3.34943 0.818182H14.7273C15.6776 0.818182 17.1818 2.32244 17.1818 3.27273V14.7273C17.1818 15.6776 15.6776 17.1818 14.7273 17.1818H3.27273C2.32244 17.1818 0.818182 15.7218 0.818182 14.7716V3.27273C0.818182 2.32244 2.04545 0.818182 3.34943 0.818182ZM8.76989 5.90625C8.16934 5.90052 7.65164 5.91811 7.36364 6.05966C7.17218 6.15375 7.01795 6.3542 7.10795 6.36648C7.21923 6.3812 7.48595 6.44052 7.61932 6.62216C7.79195 6.85698 7.77273 7.3892 7.77273 7.3892C7.77273 7.3892 7.87316 8.84475 7.54261 9.02557C7.31598 9.14911 7.00936 8.87605 6.34091 7.72159C5.99809 7.13005 5.75284 6.49432 5.75284 6.49432C5.75284 6.49432 5.68861 6.35523 5.59943 6.28977C5.49143 6.21041 5.34375 6.1875 5.34375 6.1875L3.75852 6.21307C3.75852 6.21307 3.51368 6.21061 3.42614 6.31534C3.34759 6.40861 3.40057 6.59659 3.40057 6.59659C3.40057 6.59659 4.6665 9.54307 6.08523 11.0199C7.38777 12.3732 8.87216 12.2727 8.87216 12.2727H9.53693C9.53693 12.2727 9.74066 12.2562 9.84375 12.1449C9.93866 12.0426 9.92045 11.8381 9.92045 11.8381C9.92045 11.8381 9.91309 10.9471 10.3295 10.8153C10.7403 10.6853 11.2784 11.6845 11.8381 12.0682C12.2611 12.3586 12.5795 12.2983 12.5795 12.2983L14.0625 12.2727C14.0625 12.2727 14.8422 12.2232 14.4716 11.608C14.4413 11.558 14.2681 11.1608 13.3722 10.3295C12.4345 9.459 12.5491 9.585 13.679 8.07955C14.3671 7.16236 14.6598 6.6062 14.5739 6.36648C14.492 6.1382 13.9858 6.21307 13.9858 6.21307H12.2983C12.2983 6.21307 12.1606 6.20857 12.0682 6.2642C11.9774 6.3182 11.9148 6.44318 11.9148 6.44318C11.9148 6.44318 11.6562 7.14334 11.3011 7.74716C10.5517 9.02025 10.2477 9.07855 10.125 9C9.83945 8.81591 9.92045 8.26936 9.92045 7.875C9.92045 6.64118 10.114 6.11632 9.5625 5.98295C9.37923 5.93877 9.2387 5.91116 8.76989 5.90625Z" fill="#D0D0CF"/>
</svg>
