<svg width="15" height="15" viewBox="0 0 15 15" fill="none" xmlns="http://www.w3.org/2000/svg">
<g clip-path="url(#clip0_204_1396)">
<g filter="url(#filter0_d_204_1396)">
<path d="M13.5 6.9375H12.0625C11.875 6.25 11.5625 5.5625 11.125 5.0625L13.25 1.6875L12.1875 1L10.1875 4.1875C9.9375 4 9.75 3.875 9.4375 3.75L10 1.5L8.8125 1.1875L8.3125 3.3125C7.9375 3.25 7.625 3.1875 7.25 3.1875C4.9375 3.1875 3 4.8125 2.4375 6.9375H1C1 9.5 2.5625 11.6875 4.75 12.6875V13.8125H9.75V12.6875C11.9375 11.6875 13.5 9.5 13.5 6.9375ZM7.25 4.4375C8.875 4.4375 10.25 5.5 10.75 6.9375H3.75C4.25 5.5 5.625 4.4375 7.25 4.4375Z" fill="#992637"/>
</g>
</g>
<defs>
<filter id="filter0_d_204_1396" x="-1" y="1" width="16.5" height="16.8125" filterUnits="userSpaceOnUse" color-interpolation-filters="sRGB">
<feFlood flood-opacity="0" result="BackgroundImageFix"/>
<feColorMatrix in="SourceAlpha" type="matrix" values="0 0 0 0 0 0 0 0 0 0 0 0 0 0 0 0 0 0 127 0" result="hardAlpha"/>
<feOffset dy="2"/>
<feGaussianBlur stdDeviation="1"/>
<feComposite in2="hardAlpha" operator="out"/>
<feColorMatrix type="matrix" values="0 0 0 0 0 0 0 0 0 0 0 0 0 0 0 0 0 0 0.25 0"/>
<feBlend mode="normal" in2="BackgroundImageFix" result="effect1_dropShadow_204_1396"/>
<feBlend mode="normal" in="SourceGraphic" in2="effect1_dropShadow_204_1396" result="shape"/>
</filter>
<clipPath id="clip0_204_1396">
<rect width="14.5" height="14.8125" fill="white"/>
</clipPath>
</defs>
</svg>
